<svg width="55" height="34" viewBox="0 0 55 34" fill="none" xmlns="http://www.w3.org/2000/svg">
<path d="M15.152 0.0159998C19.632 0.0159998 23.168 1.328 25.76 3.952C28.352 6.544 29.648 10.272 29.648 15.136V34H24.848V24.736H5.456V34H0.752V15.136C0.752 10.272 2.048 6.544 4.64 3.952C7.232 1.328 10.736 0.0159998 15.152 0.0159998ZM24.848 20.56V14.704C24.848 11.28 23.984 8.688 22.256 6.928C20.56 5.168 18.192 4.288 15.152 4.288C12.112 4.288 9.728 5.168 8 6.928C6.304 8.688 5.456 11.28 5.456 14.704V20.56H24.848ZM35.9746 19.072L29.8306 25.312V34H25.0306V0.399998H29.8306V19.168L48.0706 0.399998H53.5426L39.1906 15.52L54.4546 34H48.8386L35.9746 19.072Z" fill="#917656"/>
</svg>
